<svg width="32" height="32" viewBox="0 0 32 32" fill="none" xmlns="http://www.w3.org/2000/svg">
<path d="M29.2286 11.068C26.6626 5.80812 23.9132 5.44069 21.3535 6.6944C20.5771 7.07445 19.91 7.56189 19.4254 8.20083H12.5758C12.0911 7.56189 11.4241 7.07445 10.6477 6.6944C8.0879 5.44069 5.33842 5.80812 2.77249 11.068C0.204475 16.3284 -1.20676 24.4893 1.35301 25.7431C3.13214 26.6137 6.35883 23.9172 9.02387 20.4274H22.9751C25.6402 23.9172 28.8669 26.6137 30.646 25.7431C33.2078 24.4893 31.7945 16.3284 29.2286 11.068ZM11.9483 14.3548C11.9483 14.5673 11.7722 14.7396 11.5554 14.7396H9.67625V16.6688C9.67625 16.8812 9.50114 17.0535 9.28435 17.0535H8.61945H7.95448C7.73876 17.0535 7.56258 16.8812 7.56258 16.6688V14.7395H5.68354C5.46682 14.7395 5.29057 14.5673 5.29057 14.3548V13.0494C5.29057 12.8369 5.46675 12.6647 5.68354 12.6647H7.56265V10.735C7.56265 10.5226 7.73883 10.3502 7.95454 10.3502H8.61958H9.28449C9.50127 10.3502 9.67638 10.5225 9.67638 10.735V12.6647H11.5555C11.7723 12.6647 11.9485 12.837 11.9485 13.0494V14.3548H11.9483ZM24.0997 11.0696C24.0997 11.733 23.564 12.2706 22.9012 12.2706C22.2383 12.2706 21.7026 11.733 21.7026 11.0696C21.7026 10.4061 22.2383 9.86855 22.9012 9.86855C23.564 9.86855 24.0997 10.4061 24.0997 11.0696ZM20.429 14.7468C19.7661 14.7468 19.2304 14.2087 19.2304 13.5453C19.2304 12.8829 19.7662 12.3448 20.429 12.3448C21.0919 12.3448 21.6276 12.8829 21.6276 13.5453C21.6276 14.2086 21.0919 14.7468 20.429 14.7468ZM25.3778 14.7468C24.7149 14.7468 24.1792 14.2087 24.1792 13.5453C24.1792 12.8829 24.7149 12.3448 25.3778 12.3448C26.0406 12.3448 26.5763 12.8829 26.5763 13.5453C26.5763 14.2086 26.0407 14.7468 25.3778 14.7468ZM22.9012 17.223C22.2383 17.223 21.7026 16.6854 21.7026 16.0219C21.7026 15.3585 22.2383 14.8209 22.9012 14.8209C23.564 14.8209 24.0997 15.3585 24.0997 16.0219C24.0997 16.6854 23.564 17.223 22.9012 17.223Z" fill="#60FA09"/>
</svg>
