<svg width="28" height="24" viewBox="0 0 28 24" fill="none" xmlns="http://www.w3.org/2000/svg">
<path d="M7 1.71428V13.7143C7 14.6786 6.17969 15.4286 5.25 15.4286H1.75C0.765625 15.4286 0 14.625 0 13.7143V1.76786C0 0.857143 0.765625 0.107143 1.75 0.107143H5.25C6.17969 0 7 0.75 7 1.71428ZM28 13.6607C28 15.1071 26.7969 16.2321 25.375 16.2321H17.3359C18.5938 18.2679 19.25 20.5714 19.25 21.375C19.25 22.6607 18.2109 24 16.5156 24C13.0703 24 15.0938 19.875 10.6094 16.3929L9.73438 15.6964C9.07812 15.1607 8.75 14.4643 8.75 13.7143V5.14286C8.75 4.28571 9.13281 3.53571 9.78906 3.05357L11.6484 1.71428C13.1797 0.589285 14.9844 0 16.8984 0H20.125C21.5469 0 22.75 1.125 22.75 2.51786C22.75 2.73214 22.6953 2.94643 22.6406 3.10714C23.7344 3.42857 24.5 4.39286 24.5 5.57143C24.5 6.05357 24.3359 6.48214 24.0625 6.85714C25.3203 7.125 26.25 8.14286 26.25 9.375C26.25 10.0714 25.9766 10.6607 25.5391 11.1429C26.9062 11.1964 28 12.3214 28 13.6607Z" fill="white" fill-opacity="0.24"/>
</svg>
