<svg width="28" height="24" viewBox="0 0 28 24" fill="none" xmlns="http://www.w3.org/2000/svg">
<path d="M7 22.2857V10.2857C7 9.32143 6.17969 8.57143 5.25 8.57143H1.75C0.765625 8.57143 0 9.375 0 10.2857V22.2321C0 23.1429 0.765625 23.8929 1.75 23.8929H5.25C6.17969 24 7 23.25 7 22.2857ZM28 10.3393C28 8.89286 26.7969 7.76786 25.375 7.76786H17.3359C18.5938 5.73214 19.25 3.42857 19.25 2.625C19.25 1.33929 18.2109 0 16.5156 0C13.0703 0 15.0938 4.125 10.6094 7.60714L9.73438 8.30357C9.07812 8.83929 8.75 9.53571 8.75 10.2857V18.8571C8.75 19.7143 9.13281 20.4643 9.78906 20.9464L11.6484 22.2857C13.1797 23.4107 14.9844 24 16.8984 24H20.125C21.5469 24 22.75 22.875 22.75 21.4821C22.75 21.2679 22.6953 21.0536 22.6406 20.8929C23.7344 20.5714 24.5 19.6071 24.5 18.4286C24.5 17.9464 24.3359 17.5179 24.0625 17.1429C25.3203 16.875 26.25 15.8571 26.25 14.625C26.25 13.9286 25.9766 13.3393 25.5391 12.8571C26.9062 12.8036 28 11.6786 28 10.3393Z" fill="white" fill-opacity="0.24"/>
</svg>
