<svg width="32" height="30" viewBox="0 0 32 30" fill="none" xmlns="http://www.w3.org/2000/svg">
<path d="M7.06081 15H24.8518C25.797 15 26.6309 14.1797 26.6309 13.125V1.875C26.6309 0.878906 25.797 0 24.8518 0H19.5701V7.5L16.0119 5.625L12.3981 7.5V0H7.06081C6.11566 0 5.28171 0.878906 5.28171 1.875V13.125C5.28171 14.1797 6.11566 15 7.06081 15ZM31.579 19.7461C30.8563 18.6914 29.4664 18.457 28.4656 19.2187L21.794 24.4336H15.0668C14.622 24.4336 14.2328 23.9648 14.2328 23.4961C14.2328 23.0859 14.6776 22.6172 15.0668 22.6172H19.4589C20.2929 22.6172 21.1268 21.9727 21.2936 21.0937C21.4604 19.9805 20.6265 18.8672 19.5145 18.8672H10.619C9.17349 18.8672 7.61678 19.4531 6.44924 20.4492L3.89178 22.6172L0.833954 22.5C0.333581 22.5 0 22.9102 0 23.4375V29.0625C0 29.5898 0.389178 30 0.833954 30H20.0705C21.2936 30 22.5167 29.5898 23.4619 28.8281L31.0231 23.0273C32.0794 22.2656 32.3018 20.8008 31.579 19.7461Z" fill="white" fill-opacity="0.24"/>
</svg>
