<svg width="16" height="16" viewBox="0 0 16 16" fill="none" xmlns="http://www.w3.org/2000/svg">
<path d="M15.7654 14.7188L11.5738 10.5312C12.4809 9.4375 12.9814 8.03125 12.9814 6.5C12.9814 2.9375 10.0411 0 6.47507 0C2.87781 0 0 2.9375 0 6.5C0 10.0938 2.90909 13 6.47507 13C7.97654 13 9.38416 12.5 10.5103 11.5938L14.7019 15.7812C14.8583 15.9375 15.0459 16 15.2649 16C15.4526 16 15.6403 15.9375 15.7654 15.7812C16.0782 15.5 16.0782 15.0312 15.7654 14.7188ZM1.50147 6.5C1.50147 3.75 3.72239 1.5 6.50635 1.5C9.25904 1.5 11.5112 3.75 11.5112 6.5C11.5112 9.28125 9.25904 11.5 6.50635 11.5C3.72239 11.5 1.50147 9.28125 1.50147 6.5Z" fill="white" fill-opacity="0.48"/>
</svg>
