<svg width="30" height="30" viewBox="0 0 30 30" fill="none" xmlns="http://www.w3.org/2000/svg">
<path d="M25.8666 13.2188C25.6571 13.2188 25.4477 13.2188 25.2382 13.2188C23.8766 13.2188 22.6721 12.6064 21.8342 11.6045C20.9963 12.6064 19.7918 13.2188 18.4302 13.2188C17.0686 13.2188 15.8117 12.6064 14.9738 11.6045C14.1883 12.6064 12.9314 13.2188 11.5698 13.2188C10.2082 13.2188 9.00373 12.6064 8.16582 11.6045C7.32792 12.6064 6.12343 13.2188 4.76183 13.2188C4.55235 13.2188 4.34287 13.2188 4.1334 13.2188C1.20072 12.7734 -0.160876 9.15527 1.4102 6.53906L4.39524 1.5293C4.65709 1.02832 5.12841 0.75 5.6521 0.75H24.3479C24.8716 0.75 25.3429 1.02832 25.6048 1.5293L28.5898 6.53906C30.1609 9.15527 28.7993 12.7734 25.8666 13.2188ZM26.0761 14.9443C26.2856 14.9443 26.5474 14.8887 26.7569 14.833V25.6875C26.7569 27.6914 25.2382 29.25 23.4053 29.25H6.64712C4.76183 29.25 3.29549 27.6914 3.29549 25.6875V14.833C3.4526 14.8887 3.66207 14.9443 3.87155 14.9443H3.92392C4.18577 15 4.44761 15 4.76183 15C5.39026 15 6.01869 14.9443 6.64712 14.7217V22.125H23.4053V14.7217C23.9813 14.9443 24.6097 15 25.2382 15C25.5524 15 25.8142 15 26.0761 14.9443Z" fill="#60FA09"/>
</svg>
