<svg width="12" height="12" viewBox="0 0 12 12" fill="none" xmlns="http://www.w3.org/2000/svg">
<path d="M7.07143 0.207045L11.7857 5.4535C11.9196 5.60964 12 5.79701 12 6.01561C12 6.20299 11.9196 6.39036 11.7857 6.5465L7.07143 11.793C6.83036 12.074 6.40179 12.074 6.16071 11.7617C5.91964 11.4807 5.91964 10.981 6.1875 10.6999L9.75 6.76511H0.642857C0.267857 6.76511 0 6.42159 0 6.01561C0 5.57841 0.267857 5.26612 0.642857 5.26612H9.75L6.1875 1.30006C5.91964 1.019 5.91964 0.519334 6.16071 0.238274C6.40179 -0.0740144 6.80357 -0.0740144 7.07143 0.207045Z" fill="#60FA09"/>
</svg>
