<svg width="142" height="19" viewBox="0 0 142 19" fill="none" xmlns="http://www.w3.org/2000/svg">
<path d="M8.87538 0.335295C12.2538 0.335295 14.811 1.09902 16.5469 2.62647C18.3014 4.15392 19.1787 6.38922 19.1787 9.33235V9.69559C19.1787 12.6387 18.3014 14.874 16.5469 16.4015C14.811 17.9103 12.2538 18.6647 8.87538 18.6647H0V0.335295H8.87538ZM8.87538 15.5353C11.1526 15.5353 12.8418 15.0603 13.943 14.1103C15.063 13.1603 15.6229 11.7074 15.6229 9.75147V9.30441C15.6229 5.41127 13.3644 3.46471 8.84739 3.46471H3.49976V15.5353H8.87538Z" fill="white"/>
<path d="M26.687 0.335295V18.6647H23.1872V0.335295H26.687Z" fill="white"/>
<path d="M52.1044 8.80147V18.6647H48.9406L48.8006 16.7926C46.9901 18.2642 44.6196 19 41.6891 19C39.4493 19 37.4987 18.6275 35.8375 17.8824C34.195 17.1186 32.9257 16.0382 32.0298 14.6412C31.1338 13.2441 30.6859 11.5956 30.6859 9.69559V9.33235C30.6859 7.46961 31.1338 5.83971 32.0298 4.44265C32.9444 3.02696 34.2323 1.93725 35.8935 1.17353C37.5734 0.391176 39.5146 0 41.7171 0C43.7703 0 45.5808 0.279412 47.1487 0.838236C48.7166 1.37843 49.9299 2.16078 50.7885 3.18529C51.6471 4.19118 52.0764 5.35539 52.0764 6.67794V6.81765H48.5206V6.67794C48.5206 6.06324 48.2127 5.4951 47.5967 4.97353C46.9994 4.43333 46.1781 4.01422 45.1329 3.71618C44.1063 3.39951 42.977 3.24118 41.7451 3.24118C39.3746 3.24118 37.5267 3.77206 36.2015 4.83382C34.8949 5.87696 34.2416 7.35784 34.2416 9.27647V9.75147C34.2416 11.7074 34.8762 13.1975 36.1455 14.2221C37.4334 15.2466 39.2999 15.7588 41.7451 15.7588C43.2197 15.7588 44.5356 15.5446 45.6928 15.1162C46.8501 14.6877 47.8207 14.101 48.6046 13.3559V11.9309H39.2253V8.80147H52.1044Z" fill="white"/>
<path d="M59.6612 0.335295V18.6647H56.1615V0.335295H59.6612Z" fill="white"/>
<path d="M62.4562 3.46471V0.335295H81.0749V3.46471H73.5154V18.6647H70.0157V3.46471H62.4562Z" fill="white"/>
<path d="M99.621 9.30441C100.442 9.73284 101.068 10.2824 101.497 10.9529C101.926 11.6235 102.141 12.4059 102.141 13.3V13.5794C102.141 15.1627 101.516 16.4108 100.265 17.3235C99.0331 18.2176 97.3252 18.6647 95.1413 18.6647H83.4381V0.335295H94.5814C96.8025 0.335295 98.5198 0.763726 99.733 1.62059C100.946 2.47745 101.553 3.69755 101.553 5.28088V5.56029C101.553 7.16226 100.909 8.41029 99.621 9.30441ZM88.3938 4.58235V7.48824H94.5814C95.272 7.48824 95.7759 7.38579 96.0933 7.18088C96.4292 6.95735 96.5972 6.62206 96.5972 6.175V5.89559C96.5972 5.0201 95.9253 4.58235 94.5814 4.58235H88.3938ZM97.0732 12.7412C97.0732 11.8284 96.3919 11.3721 95.0293 11.3721H88.3938V14.4176H95.0293C96.3919 14.4176 97.0732 13.952 97.0732 13.0206V12.7412Z" fill="#60FA09"/>
<path d="M123.867 17.9103V18.6647H118.967L117.539 15.2838H108.972L107.544 18.6647H102.644V17.9103L110.512 0.335295H115.999L123.867 17.9103ZM115.803 11.1206L113.255 5.05735L110.708 11.1206H115.803Z" fill="#60FA09"/>
<path d="M142 0.335295V1.08971L134.189 11.5397V18.6647H129.233V11.5397L121.393 1.08971V0.335295H126.657L131.725 7.26471L136.764 0.335295H142Z" fill="#60FA09"/>
</svg>
