<svg width="16" height="14" viewBox="0 0 16 14" fill="none" xmlns="http://www.w3.org/2000/svg">
<path d="M16 3V11C16 12.6875 14.6562 14 13 14H10.75C10.3125 14 10 13.6875 10 13.25C10 12.8438 10.3125 12.5 10.75 12.5H13C13.8125 12.5 14.5 11.8438 14.5 11V3C14.5 2.1875 13.8125 1.5 13 1.5H10.75C10.3125 1.5 10 1.1875 10 0.75C10 0.34375 10.3125 0 10.75 0H13C14.6562 0 16 1.34375 16 3ZM10.7812 6.5L6.78125 2.25C6.5 1.9375 6.03125 1.9375 5.71875 2.21875C5.40625 2.5 5.40625 2.96875 5.6875 3.28125L8.5 6.25H0.75C0.3125 6.25 0 6.59375 0 7C0 7.4375 0.3125 7.75 0.75 7.75H8.5L5.6875 10.75C5.40625 11.0625 5.40625 11.5312 5.71875 11.8125C5.875 11.9375 6.0625 12 6.25 12C6.4375 12 6.625 11.9375 6.78125 11.7812L10.7812 7.53125C11.0625 7.25 11.0625 6.78125 10.7812 6.5Z" fill="#0A0719"/>
</svg>
