<svg width="28" height="28" viewBox="0 0 28 28" fill="none" xmlns="http://www.w3.org/2000/svg">
<path d="M25.6405 2.38035C22.4945 -0.793504 17.3756 -0.793394 14.2296 2.38035C11.9231 4.70726 11.2437 8.18124 12.4542 11.1926L0 23.719V28H4.6393L5.49609 25.5125L7.8208 24.7482L8.56515 22.4432L10.7813 21.8607L16.9047 15.6829C19.89 16.9047 23.3338 16.2195 25.6405 13.8923C28.7865 10.7184 28.7865 5.5542 25.6405 2.38035ZM21.9539 8.10687C20.7218 8.10687 19.7194 7.09558 19.7194 5.85262C19.7194 4.60961 20.7218 3.59842 21.9539 3.59842C23.186 3.59842 24.1883 4.60966 24.1883 5.85262C24.1883 7.09563 23.186 8.10687 21.9539 8.10687Z" fill="#60FA09"/>
</svg>
