<svg width="32" height="18" viewBox="0 0 32 18" fill="none" xmlns="http://www.w3.org/2000/svg">
<path d="M2.21429 3.375C2.21429 1.54688 3.78571 0 5.64286 0C7.57143 0 9.07143 1.54688 9.07143 3.375C9.07143 5.27344 7.57143 6.75 5.64286 6.75C3.78571 6.75 2.21429 5.27344 2.21429 3.375ZM8.71429 9C9.35714 9 10 9.21094 10.5714 9.49219C8.21429 10.3359 6.42857 12.2344 5.85714 14.625H1.85714C0.785714 14.625 0 13.8516 0 12.7969C0 10.6875 1.64286 9 3.78571 9H8.71429ZM30.0714 14.625H26.0714C25.5 12.2344 23.7143 10.3359 21.3571 9.49219C21.9286 9.21094 22.5714 9 23.2143 9H28.1429C30.2857 9 32 10.6875 32 12.7969C32 13.8516 31.1429 14.625 30.0714 14.625ZM24 16.3125C24 17.2969 23.2143 18 22.2857 18H9.71429C8.71429 18 8 17.2969 8 16.3125C8 15.75 8.07143 15.1875 8.28572 14.625C8.85714 12.9375 10.3571 11.6719 12.2143 11.3203C12.5 11.3203 12.7857 11.25 13.1429 11.25H18.8571C19.1429 11.25 19.4286 11.3203 19.7143 11.3203C21.5714 11.6719 23.0714 12.9375 23.6429 14.625C23.8571 15.1875 24 15.75 24 16.3125ZM22.8571 3.375C22.8571 1.54688 24.3571 0 26.2857 0C28.1429 0 29.7143 1.54688 29.7143 3.375C29.7143 5.27344 28.1429 6.75 26.2857 6.75C24.3571 6.75 22.8571 5.27344 22.8571 3.375ZM20.5714 4.5C20.5714 7.03125 18.5 9 16 9C13.4286 9 11.4286 7.03125 11.4286 4.5C11.4286 2.03906 13.4286 0 16 0C18.5 0 20.5714 2.03906 20.5714 4.5Z" fill="#60FA09"/>
</svg>
