<svg width="32" height="32" viewBox="0 0 32 32" fill="none" xmlns="http://www.w3.org/2000/svg">
<path d="M27.4955 16C26.7899 16 26.0843 15.875 25.4375 15.6875V24H6.56252V15.6875C5.91572 15.875 5.21011 16 4.50451 16C4.1517 16 3.8577 16 3.5049 15.9375C3.2697 15.9375 3.0933 15.8125 2.85809 15.75V29C2.85809 30.6875 4.0929 32 5.62172 32H26.3195C27.8483 32 29.0831 30.6875 29.0831 29V15.75C28.8479 15.8125 28.6127 15.9375 28.3187 15.9375C28.1423 16 27.8483 16 27.4955 16ZM31.2587 6.5L27.9071 0.875C27.6131 0.3125 27.0839 0 26.4959 0H5.50412C4.91611 0 4.38691 0.3125 4.0929 0.875L0.741277 6.5C-1.02274 9.4375 0.506075 13.5 3.7989 14C4.0341 14 4.26931 14 4.50451 14C6.03332 14 7.38573 13.3125 8.32654 12.25C9.26735 13.3125 10.6198 14 12.1486 14C13.6774 14 15.0298 13.3125 15.9706 12.25C16.9114 13.3125 18.3226 14 19.8514 14C21.3802 14 22.7327 13.3125 23.6735 12.25C24.6143 13.3125 25.9667 14 27.4955 14C27.7307 14 27.9659 14 28.2011 14C31.4939 13.5 33.0227 9.4375 31.2587 6.5Z" fill="white" fill-opacity="0.24"/>
</svg>
