<svg width="28" height="27" viewBox="0 0 28 27" fill="none" xmlns="http://www.w3.org/2000/svg">
<path d="M27.1933 15.1867H14.9686L23.0668 23.5182C23.3763 23.8874 23.8921 23.8874 24.2016 23.571C26.2133 21.6726 27.606 19.0888 27.9671 16.1358C28.1218 15.6613 27.7092 15.1867 27.1933 15.1867ZM26.368 11.8119C25.9038 5.48407 21.0036 0.527315 14.8138 0C14.3496 0 13.9885 0.421852 13.9885 0.896435L14.0401 12.6556H25.5427C26.007 12.6556 26.4196 12.2864 26.368 11.8119ZM11.5642 15.1867V2.68931C11.5642 2.21472 11.1 1.79287 10.6358 1.8456C4.4976 2.74204 -0.247873 8.22611 0.0100333 14.8175C0.216358 21.5672 5.89029 27.104 12.5443 26.9985C15.1233 26.9985 17.5477 26.1548 19.5077 24.6783C19.9204 24.4147 19.9204 23.7819 19.5593 23.4128L11.5642 15.1867Z" fill="#60FA09"/>
</svg>
