<svg width="18" height="18" viewBox="0 0 18 18" fill="none" xmlns="http://www.w3.org/2000/svg">
<path d="M17.6165 3.825C17.7168 3.375 17.6165 3 17.0148 3H15.0426C14.5411 3 14.3071 3.3 14.1734 3.6375C14.1734 3.6375 13.1706 6.375 11.7666 8.175C11.2986 8.6625 11.0981 8.85 10.8306 8.85C10.7304 8.85 10.5298 8.6625 10.5298 8.2125V3.825C10.5298 3.2625 10.3961 3 9.96152 3H6.88615C6.55187 3 6.38473 3.2625 6.38473 3.525C6.38473 4.05 7.08672 4.1625 7.15357 5.6625V8.925C7.15357 9.6375 7.05329 9.7875 6.78587 9.7875C6.11731 9.7875 4.51277 7.0125 3.54336 3.8625C3.34279 3.2625 3.14222 3 2.64081 3H0.668558C0.133712 3 0 3.3 0 3.6375C0 4.2375 0.668558 7.125 3.1088 10.9875C4.74676 13.6125 7.05329 15 9.12582 15C10.3627 15 10.5298 14.7 10.5298 14.175C10.5298 11.6625 10.4295 11.4 11.0312 11.4C11.3321 11.4 11.8335 11.5875 13.0035 12.8625C14.3406 14.3625 14.5746 15 15.31 15H17.2822C17.8505 15 18.1179 14.7 17.9508 14.0625C17.5831 12.7875 15.076 10.0875 14.9423 9.9C14.6414 9.4875 14.7417 9.3 14.9423 8.925C14.9423 8.925 17.3491 5.1 17.6165 3.825Z" fill="#60FA09"/>
</svg>
