<?xml version="1.0" encoding="utf-8"?><svg viewBox="0 0 32 32" xmlns="http://www.w3.org/2000/svg" xmlns:xlink="http://www.w3.org/1999/xlink"><style>:root>svg{display:none}:root>svg:target{display:block}</style><svg viewBox="0 0 10 10" id="arrow" xmlns="http://www.w3.org/2000/svg"><path d="M10 1.763V9.25a.74.74 0 01-.749.749H1.763a.721.721 0 01-.749-.749.74.74 0 01.749-.749H7.44L.234 1.295C-.078.983-.078.515.234.234a.683.683 0 011.03 0l7.238 7.239v-5.71a.74.74 0 01.75-.749.76.76 0 01.748.749z" fill-opacity=".48"/></svg><svg viewBox="0 0 10 6" id="arrow-down" xmlns="http://www.w3.org/2000/svg"><path d="M9.728 1.719l-3.98 4A1.11 1.11 0 015.027 6a.994.994 0 01-.721-.281l-3.98-4A.966.966 0 01.073.625 1.03 1.03 0 011.014 0h7.993c.408 0 .752.25.91.625.156.375.093.813-.189 1.094z" fill-opacity=".48"/></svg><svg viewBox="0 0 16 14" id="btn-arrow" xmlns="http://www.w3.org/2000/svg"><path d="M16 3v8c0 1.688-1.344 3-3 3h-2.25a.722.722 0 01-.75-.75.74.74 0 01.75-.75H13a1.5 1.5 0 001.5-1.5V3c0-.813-.688-1.5-1.5-1.5h-2.25A.722.722 0 0110 .75a.74.74 0 01.75-.75H13a3 3 0 013 3zm-5.219 3.5l-4-4.25c-.281-.313-.75-.313-1.062-.031-.313.281-.313.75-.032 1.062L8.5 6.25H.75A.74.74 0 000 7c0 .438.313.75.75.75H8.5l-2.813 3c-.28.313-.28.781.032 1.063A.849.849 0 006.25 12a.732.732 0 00.531-.219l4-4.25a.736.736 0 000-1.031z"/></svg><svg viewBox="0 0 14 10" id="check" xmlns="http://www.w3.org/2000/svg"><path d="M13.696.304a.962.962 0 010 1.404L5.705 9.696a.963.963 0 01-1.405 0L.304 5.702a.962.962 0 010-1.404.963.963 0 011.405 0l3.278 3.276L12.29.304a.963.963 0 011.405 0z"/></svg><svg viewBox="0 0 32 32" id="controller" xmlns="http://www.w3.org/2000/svg"><path d="M29.229 11.068c-2.566-5.26-5.316-5.627-7.875-4.374-.777.38-1.444.868-1.929 1.507h-6.85c-.484-.64-1.15-1.127-1.927-1.507-2.56-1.253-5.31-.886-7.876 4.374-2.568 5.26-3.979 13.421-1.419 14.675 1.78.87 5.006-1.826 7.67-5.316h13.952c2.665 3.49 5.892 6.187 7.671 5.316 2.562-1.254 1.148-9.415-1.417-14.675zm-17.28 3.287a.389.389 0 01-.394.385H9.676v1.929a.388.388 0 01-.392.384h-1.33a.389.389 0 01-.391-.384v-1.93h-1.88a.39.39 0 01-.392-.384v-1.306c0-.212.176-.384.393-.384h1.879v-1.93a.39.39 0 01.392-.385h1.329c.217 0 .392.173.392.385v1.93h1.88a.39.39 0 01.393.384v1.306zm12.15-3.285a1.2 1.2 0 11-2.396 0 1.2 1.2 0 112.397 0zm-3.67 3.677a1.2 1.2 0 01-1.199-1.202 1.2 1.2 0 112.398 0 1.2 1.2 0 01-1.199 1.202zm4.949 0a1.2 1.2 0 01-1.199-1.202 1.2 1.2 0 112.397 0 1.2 1.2 0 01-1.198 1.202zM22.9 17.223a1.2 1.2 0 01-1.198-1.201 1.2 1.2 0 112.397 0 1.2 1.2 0 01-1.199 1.201z"/></svg><svg viewBox="0 0 28 24" id="dislike" xmlns="http://www.w3.org/2000/svg"><path d="M7 1.714v12c0 .965-.82 1.715-1.75 1.715h-3.5c-.984 0-1.75-.804-1.75-1.715V1.768C0 .858.766.108 1.75.108h3.5C6.18 0 7 .75 7 1.713zm21 11.947c0 1.446-1.203 2.571-2.625 2.571h-8.04c1.259 2.036 1.915 4.34 1.915 5.143 0 1.286-1.04 2.625-2.734 2.625-3.446 0-1.422-4.125-5.907-7.607l-.875-.697c-.656-.535-.984-1.232-.984-1.982V5.143c0-.857.383-1.607 1.04-2.09l1.858-1.339A8.78 8.78 0 0116.898 0h3.227c1.422 0 2.625 1.125 2.625 2.518 0 .214-.055.428-.11.59 1.094.32 1.86 1.285 1.86 2.463 0 .483-.164.911-.438 1.286 1.258.268 2.188 1.286 2.188 2.518 0 .696-.273 1.286-.71 1.768 1.366.053 2.46 1.178 2.46 2.518z" fill-opacity=".24"/></svg><svg viewBox="0 0 28 28" id="key" xmlns="http://www.w3.org/2000/svg"><path d="M25.64 2.38a8.028 8.028 0 00-11.41 0 8.19 8.19 0 00-1.776 8.813L0 23.719V28h4.64l.856-2.488 2.325-.764.744-2.305 2.216-.582 6.124-6.178a8.014 8.014 0 008.735-1.79c3.146-3.175 3.146-8.339 0-11.513zm-3.686 5.727a2.247 2.247 0 01-2.235-2.254 2.247 2.247 0 012.235-2.255 2.247 2.247 0 012.234 2.255 2.247 2.247 0 01-2.234 2.254z"/></svg><svg viewBox="0 0 28 24" id="like" xmlns="http://www.w3.org/2000/svg"><path d="M7 22.286v-12C7 9.32 6.18 8.57 5.25 8.57h-3.5C.766 8.57 0 9.374 0 10.285v11.946c0 .91.766 1.66 1.75 1.66h3.5C6.18 24 7 23.25 7 22.287zm21-11.947c0-1.446-1.203-2.571-2.625-2.571h-8.04c1.259-2.036 1.915-4.34 1.915-5.143C19.25 1.339 18.21 0 16.516 0c-3.446 0-1.422 4.125-5.907 7.607l-.875.697c-.656.535-.984 1.232-.984 1.982v8.571c0 .857.383 1.607 1.04 2.09l1.858 1.339A8.78 8.78 0 0016.898 24h3.227c1.422 0 2.625-1.125 2.625-2.518a1.89 1.89 0 00-.11-.59c1.094-.32 1.86-1.285 1.86-2.463 0-.483-.164-.911-.438-1.286 1.258-.268 2.188-1.286 2.188-2.518 0-.696-.273-1.286-.71-1.768C26.905 12.804 28 11.68 28 10.34z" fill-opacity=".24"/></svg><svg viewBox="0 0 32 18" id="people" xmlns="http://www.w3.org/2000/svg"><path d="M2.214 3.375C2.214 1.547 3.786 0 5.643 0 7.57 0 9.07 1.547 9.07 3.375c0 1.898-1.5 3.375-3.428 3.375-1.857 0-3.429-1.477-3.429-3.375zM8.714 9c.643 0 1.286.21 1.857.492-2.357.844-4.142 2.742-4.714 5.133h-4C.786 14.625 0 13.852 0 12.797 0 10.687 1.643 9 3.786 9h4.928zm21.357 5.625h-4c-.571-2.39-2.357-4.29-4.714-5.133C21.93 9.211 22.571 9 23.214 9h4.929C30.286 9 32 10.688 32 12.797c0 1.055-.857 1.828-1.929 1.828zM24 16.313c0 .984-.786 1.687-1.714 1.687H9.714C8.714 18 8 17.297 8 16.312c0-.562.071-1.125.286-1.687.571-1.688 2.071-2.953 3.928-3.305.286 0 .572-.07.929-.07h5.714c.286 0 .572.07.857.07 1.857.352 3.357 1.617 3.929 3.305.214.563.357 1.125.357 1.688zM22.857 3.374c0-1.828 1.5-3.375 3.429-3.375 1.857 0 3.428 1.547 3.428 3.375 0 1.898-1.571 3.375-3.428 3.375-1.929 0-3.429-1.477-3.429-3.375zM20.571 4.5C20.571 7.031 18.5 9 16 9c-2.571 0-4.571-1.969-4.571-4.5 0-2.46 2-4.5 4.571-4.5 2.5 0 4.571 2.04 4.571 4.5z"/></svg><svg viewBox="0 0 32 30" id="products" xmlns="http://www.w3.org/2000/svg"><path d="M7.06 15h17.792c.945 0 1.779-.82 1.779-1.875V1.875C26.63.879 25.797 0 24.85 0h-5.28v7.5l-3.56-1.875L12.399 7.5V0H7.061c-.945 0-1.78.879-1.78 1.875v11.25c0 1.055.835 1.875 1.78 1.875zm24.519 4.746c-.723-1.055-2.113-1.289-3.113-.527l-6.672 5.215h-6.727c-.445 0-.834-.47-.834-.938 0-.41.445-.879.834-.879h4.392c.834 0 1.668-.644 1.835-1.523.166-1.114-.668-2.227-1.78-2.227H10.62c-1.446 0-3.002.586-4.17 1.582l-2.557 2.168L.834 22.5c-.5 0-.834.41-.834.938v5.625c0 .527.39.937.834.937H20.07c1.224 0 2.447-.41 3.392-1.172l7.561-5.8c1.056-.762 1.279-2.227.556-3.282z" fill-opacity=".24"/></svg><svg viewBox="0 0 16 16" id="search" xmlns="http://www.w3.org/2000/svg"><path d="M15.765 14.719l-4.191-4.188c.907-1.094 1.407-2.5 1.407-4.031 0-3.563-2.94-6.5-6.506-6.5C2.878 0 0 2.938 0 6.5 0 10.094 2.91 13 6.475 13c1.502 0 2.91-.5 4.035-1.406l4.192 4.187a.754.754 0 00.563.219.623.623 0 00.5-.219c.313-.281.313-.75 0-1.062zM1.501 6.5c0-2.75 2.221-5 5.005-5 2.753 0 5.005 2.25 5.005 5 0 2.781-2.252 5-5.005 5a4.977 4.977 0 01-5.005-5z" fill-opacity=".48"/></svg><svg viewBox="0 0 32 32" id="sellers" xmlns="http://www.w3.org/2000/svg"><path d="M27.495 16a7.473 7.473 0 01-2.058-.313V24H6.564v-8.313A7.473 7.473 0 014.505 16c-.353 0-.647 0-1-.063-.235 0-.412-.124-.647-.187V29c0 1.688 1.235 3 2.764 3H26.32c1.528 0 2.763-1.313 2.763-3V15.75c-.235.063-.47.188-.764.188-.177.062-.47.062-.823.062zm3.764-9.5L27.907.875C27.613.312 27.084 0 26.496 0H5.504c-.588 0-1.117.313-1.411.875L.74 6.5c-1.763 2.938-.234 7 3.06 7.5h.706c1.528 0 2.88-.688 3.822-1.75.94 1.063 2.293 1.75 3.822 1.75 1.528 0 2.88-.688 3.822-1.75A5.217 5.217 0 0019.85 14c1.53 0 2.882-.688 3.823-1.75.94 1.063 2.293 1.75 3.822 1.75h.705c3.293-.5 4.822-4.563 3.058-7.5z" fill-opacity=".24"/></svg><svg viewBox="0 0 28 27" id="statistic" xmlns="http://www.w3.org/2000/svg"><path d="M27.193 15.187H14.97l8.098 8.331c.31.37.825.37 1.135.053a12.242 12.242 0 003.765-7.435c.155-.475-.258-.95-.774-.95zm-.825-3.375C25.904 5.484 21.004.527 14.814 0c-.464 0-.825.422-.825.896l.051 11.76h11.503c.464 0 .877-.37.825-.844zm-14.804 3.375V2.689c0-.474-.464-.896-.928-.843C4.498 2.742-.248 8.226.01 14.818c.206 6.75 5.88 12.286 12.534 12.18 2.58 0 5.004-.843 6.964-2.32.412-.263.412-.896.051-1.265l-7.995-8.226z"/></svg><svg viewBox="0 0 18 18" id="vk" xmlns="http://www.w3.org/2000/svg"><path d="M17.616 3.825c.1-.45 0-.825-.601-.825h-1.972c-.502 0-.736.3-.87.638 0 0-1.002 2.737-2.406 4.537-.468.487-.669.675-.936.675-.1 0-.301-.188-.301-.637V3.825c0-.563-.134-.825-.568-.825H6.886c-.334 0-.501.263-.501.525 0 .525.702.637.769 2.137v3.263c0 .712-.1.862-.368.862-.669 0-2.273-2.775-3.243-5.925-.2-.6-.4-.862-.902-.862H.669C.134 3 0 3.3 0 3.638c0 .6.669 3.487 3.109 7.35C4.747 13.613 7.053 15 9.126 15c1.237 0 1.404-.3 1.404-.825 0-2.513-.1-2.775.501-2.775.301 0 .803.188 1.973 1.463C14.34 14.363 14.574 15 15.31 15h1.972c.569 0 .836-.3.669-.938-.368-1.274-2.875-3.974-3.009-4.162-.3-.412-.2-.6 0-.975 0 0 2.407-3.825 2.674-5.1z"/></svg></svg>